<svg xmlns="http://www.w3.org/2000/svg" viewBox="0 0 542.8 542.01"><defs><style>.cls-1{fill:#fff;}.cls-2{fill:#794997;}</style></defs><g id="Camada_2" data-name="Camada 2"><g id="Camada_1-2" data-name="Camada 1"><path class="cls-1" d="M231,110c-14,3.34-26.44,9-38.52,15.72A4.12,4.12,0,0,0,190,130c.2,3.65,0,7.32,0,11v291.2c-4.71-.83-8.44-3.36-12.2-5.55-6.16-3.6-12-7.77-18.12-11.43-3-1.76-3.74-4-3.73-7.28q.14-123,.07-245.9v-6.12c-3.86,2.93-6.16,6.33-8.6,9.53Q109,216,115.8,279.21a150.09,150.09,0,0,0,15.12,51.29c1.08,2.16,1.29,3.17-1.2,4.53-8,4.39-15.86,9.06-23.66,13.81-2.32,1.4-3.09,1-4.33-1.38-18.24-35.61-24.4-73.22-18.86-112.75,6.81-48.57,29.42-88.53,66.81-120,27.46-23.1,59.3-36.83,94.89-41.9,5.29-.76,10.63-.78,15.87-1.63,3.71-.59,4.84.82,4.33,4.24a9.39,9.39,0,0,0,0,1.5q0,184.17.11,368.35c0,4.63-1.17,6-5.72,5.52-8.26-.93-16.52-1.77-24.72-3.2-2.47-.44-3.94-1.4-3.5-4.21a22.59,22.59,0,0,0,0-3.49V110Z"/><path class="cls-1" d="M427.33,267.23,350.4,311.36c-11.82,6.78-23.58,13.66-35.48,20.28-2.83,1.57-3.86,3.26-3.85,6.57.15,34.65,0,69.3.19,104,0,3.85-1.19,5.1-4.82,5.67-8.38,1.3-16.77,2.34-25.23,3-3.4.27-4.13-.85-4.11-4.07.15-18.82.07-37.65.07-56.47q0-156.69-.1-313.36c0-4.72.77-6.09,5.89-5.69,56.79,4.5,103.2,28.71,138.37,73.47,25.52,32.49,38.82,69.8,39.65,111.2,1.19,60-21.69,109.55-66,149.62-2.94,2.66-4.64,2.91-7.47-.19-5.71-6.26-11.79-12.19-17.92-18-2.22-2.12-2.32-3.16.19-5.21,26.05-21.34,43.28-48.34,52.28-80.71A149.14,149.14,0,0,0,427.33,267.23Z"/><path class="cls-1" d="M437.54,145.9c7-3.62,13.44-7.08,20-10.2a7.31,7.31,0,0,0,4.47-5.93c1.16-7,2.44-14,3.79-21.72a107.36,107.36,0,0,1,15.46,15.28,9.44,9.44,0,0,0,8.53,3.66c7.08-.34,14.18-.1,21.8-.1a144.77,144.77,0,0,1-12.21,19.75,6.85,6.85,0,0,0-1.08,6.43c2.07,7.44,4.36,14.86,5.38,23.05-6.85-2.64-13.39-4.91-19.7-7.7-3.34-1.48-5.77-.89-8.64,1-5.75,3.88-11.76,7.39-18.56,11.61.89-7.37,1.24-13.89,1.41-20.41a5.23,5.23,0,0,0-3.16-5.47C449.44,152.29,443.9,149.29,437.54,145.9Z"/><path class="cls-1" d="M36.56,341.5a181.5,181.5,0,0,1-9.88-21.44,6.72,6.72,0,0,0-4.82-4.39A176.59,176.59,0,0,1,0,307.74a166.93,166.93,0,0,1,18.26-14.42,6.54,6.54,0,0,0,3.15-5.6c.53-7.77,1.54-15.51,2.44-24,5.85,5.22,11.25,9.78,16.32,14.68,2.64,2.55,5.26,2.78,8.6,2,6.58-1.6,13.24-2.86,20.75-4.45-2.65,6.24-4.84,11.83-7.4,17.25-1.55,3.27-1.4,5.75,1.23,8.45,4.15,4.28,8,8.89,12.47,14-7.91,1-15.33,2.16-22.79,2.93A5.81,5.81,0,0,0,48,321.83C44.32,328.32,40.5,334.73,36.56,341.5Z"/><path class="cls-1" d="M186.37,77.05C184.1,69.36,182,62.39,180,55.35a7.19,7.19,0,0,0-5-5.43c-6.83-2.37-13.58-5-20.55-7.55A156,156,0,0,1,173.06,29a8.11,8.11,0,0,0,4.07-6.8A175.15,175.15,0,0,1,180.72,0a98.13,98.13,0,0,1,16,14.4c3.2,3.67,6.59,3.8,10.63,3.17a134,134,0,0,1,20.22-1.15c-4.07,6.83-7.63,13.14-11.54,19.22-1.65,2.57-1.45,4.69-.37,7.31,2.75,6.7,5.26,13.5,8.15,21-6.54-1.65-12.28-3-17.95-4.57-3.44-1-5.92-.35-8.09,2.76C194.36,67,190.55,71.62,186.37,77.05Z"/><path class="cls-1" d="M394.25,45.41c-7.31,2.52-14,5-20.8,7.07a7.11,7.11,0,0,0-5.15,5.33c-2.15,6.91-4.43,13.78-6.89,21.35-4.23-5.71-8.15-10.76-11.79-16-1.56-2.25-3.23-2.94-5.85-2.34-6.26,1.44-12.56,2.69-19.57,4.18,3-7.09,5.62-13.77,8.62-20.28a7.9,7.9,0,0,0-.44-8.28c-3.56-5.92-6.75-12.06-10.33-18.52a96.53,96.53,0,0,1,22.38,1.65,7.19,7.19,0,0,0,7.07-2.15c5.39-5.14,11.1-10,17.18-15.34,2.24,7.92,2.7,15.46,3.49,22.92.32,3.08,1.32,5.09,4,6.8A133,133,0,0,1,394.25,45.41Z"/><path class="cls-1" d="M34.76,120.19c8.32.46,15.61.69,22.87,1.33,2.9.26,4.91-.26,7-2.48a150.18,150.18,0,0,1,16.88-16c1.2,7.73,2.45,15,3.39,22.31a6.23,6.23,0,0,0,3.81,5.24c6.6,3.44,13.09,7.1,20,10.88-6.12,3.11-11.79,6.17-17.61,8.89-2.67,1.24-3.54,2.93-3.46,5.77.18,6.29.06,12.59.06,19.43-6.1-4-12.18-7.87-18.14-11.95-2.2-1.5-4-2.06-6.82-1.11-6.74,2.3-13.41,4.75-20.39,7.62-.72-4.65.78-8.86,2.42-12.45,4.38-9.62,3.24-17.9-3.44-26C38.82,128.72,37.36,124.84,34.76,120.19Z"/><path class="cls-1" d="M445.64,478.75a151.33,151.33,0,0,1-20.79-8.49,7.84,7.84,0,0,0-7.76.16,155.87,155.87,0,0,1-20.82,9c1.52-7.39,2.92-14.34,4.4-21.27.62-2.91.34-5.25-2-7.65-5-5.24-9.68-10.88-14.94-16.89,6.32-.69,11.9-1.34,17.5-1.91,4.09-.41,6.84-1.91,7.89-6.48,1.29-5.57,3.44-10.94,5.43-17.05,4.71,6.36,9.2,12.29,13.5,18.35a6.61,6.61,0,0,0,5.69,3.12,200.46,200.46,0,0,0,22.6-.16c-4,7.4-8.73,13.55-13.39,19.68a6.85,6.85,0,0,0-1.49,6.3C443.06,463.07,445.18,470.6,445.64,478.75Z"/><path class="cls-1" d="M125.14,404.41c2,7,3.86,13,5.58,19,.75,2.63,2,4.18,5.07,4.5,6.25.65,12.45,1.79,19.39,2.83-5.42,5.93-10.45,11.54-15.64,17a6,6,0,0,0-1.77,5.26c.63,7.59,2.66,15,3.9,23.09a139,139,0,0,1-21-9.86,6.89,6.89,0,0,0-7-.34,178,178,0,0,1-21.4,8.2,110.39,110.39,0,0,1,4.2-20.91c1.08-3.86.75-6.75-1.8-10.06-4.29-5.6-7.9-11.73-11.81-17.65,7.6,0,14.67-.12,21.74.06a7.28,7.28,0,0,0,6.7-3.25C115.61,416.4,120.2,410.74,125.14,404.41Z"/><path class="cls-1" d="M229.57,510.22c6.2-5.06,11.65-9.62,17.23-14a7.73,7.73,0,0,0,3.25-7.18c-.3-7.11-.09-14.25-.09-21.75,4.94,3.27,10.11,6.42,15,10,3.07,2.26,5.45,2,8.42-.11,4.87-3.4,10-6.42,15.49-9.89-.35,7.51-.4,14.59-1.13,21.59a8.75,8.75,0,0,0,3.57,8.54c5.26,4.29,10.33,8.81,15.93,13.62a117.29,117.29,0,0,1-20.56,5.67,10,10,0,0,0-8,6.23c-3,6.27-6.55,12.27-10.24,19.07A166.4,166.4,0,0,1,258,522.29c-1.47-3.17-3.18-5.09-7.06-5.87C243.93,515,237.2,512.51,229.57,510.22Z"/><path class="cls-1" d="M542.8,315.05c-8.09,2.53-15,4.81-22,6.81a8.22,8.22,0,0,0-6,5.07,159.81,159.81,0,0,1-10.28,20.52c-3.6-6.63-7.2-13.09-10.63-19.63-1.39-2.65-3.41-3.7-6.31-4-7.05-.83-14.07-1.94-21.64-3,4.67-5.05,8.84-9.73,13.23-14.21,2.13-2.17,2.61-4.22,1.4-7.05-2.48-5.75-4.69-11.61-7.31-18.19,7.46,1.71,14.42,3,21.2,5,3.35,1,5.6.3,8.07-1.87,5.2-4.59,10.59-9,16.22-13.67a107.4,107.4,0,0,1,2.13,22.41,7.54,7.54,0,0,0,3.41,7C530.36,304.63,536.06,309.53,542.8,315.05Z"/><path class="cls-1" d="M37.23,221.14a8.7,8.7,0,0,1-8.83-8.57v-.22a9,9,0,0,1,8.84-9.26h.22c4.91.14,8.51,4.07,8.45,9.22S42.34,221.14,37.23,221.14Z"/><path class="cls-1" d="M185.11,497.89a8.79,8.79,0,0,1-8.76-8.82V489a9,9,0,0,1,8.79-9.21h.31c4.91.15,8.47,4.11,8.37,9.29S190.17,497.92,185.11,497.89Z"/><path class="cls-1" d="M514,221.05c.13,5.45-3.55,9.43-8.69,9.41-4.86,0-8.28-3.45-8.47-8.51-.21-5.64,3.16-9.56,8.34-9.68C510.14,212.16,513.87,215.84,514,221.05Z"/><path class="cls-1" d="M358.48,487.56c-.11,5.13-3.86,9-8.68,9a9.15,9.15,0,0,1,.35-18.28C355.06,478.43,358.58,482.41,358.48,487.56Z"/><path class="cls-1" d="M422.84,80.56c.09-5.42,3.45-8.84,8.63-8.78s8.55,3.71,8.55,9-4,9.35-9,9.15S422.76,86,422.84,80.56Z"/><path class="cls-1" d="M71.64,374.22a8.72,8.72,0,0,1-8.36,9.06h-.2c-5.23.07-8.92-3.76-8.83-9.2.09-5.28,3.53-8.73,8.72-8.72S71.62,369,71.64,374.22Z"/><path class="cls-1" d="M485.26,386.24c.12,5.23-3.34,9.19-8.24,9.41s-9-3.84-9-9.16c0-5.16,3.63-9,8.55-9.12S485.14,381,485.26,386.24Z"/><path class="cls-1" d="M268.81,25.84c-.09-5.36,3.21-9,8.26-9.17a8.46,8.46,0,0,1,9,7.9c0,.2,0,.41,0,.61.19,5.34-3.55,9.51-8.59,9.58S268.91,31.13,268.81,25.84Z"/><path class="cls-1" d="M117.71,74.73c-.06-5.36,3.3-9,8.37-9.13s9,3.81,9,9.15a9,9,0,0,1-8.74,9C121.5,83.84,117.77,79.84,117.71,74.73Z"/><path class="cls-2" d="M311.33,294.34V110a155.88,155.88,0,0,1,112,116.61c.49,2.17.29,3.18-1.71,4.33q-54.56,31.53-109,63.19A4.9,4.9,0,0,1,311.33,294.34Z"/></g></g></svg>